<svg width="17" height="16" viewBox="0 0 17 16" fill="none" xmlns="http://www.w3.org/2000/svg">
<g id="Plus">
<path id="Vector" fill-rule="evenodd" clip-rule="evenodd" d="M8.50002 2.4C8.7122 2.4 8.91568 2.48429 9.06571 2.63432C9.21574 2.78435 9.30002 2.98783 9.30002 3.2V7.2H13.3C13.5122 7.2 13.7157 7.28429 13.8657 7.43432C14.0157 7.58435 14.1 7.78783 14.1 8C14.1 8.21217 14.0157 8.41566 13.8657 8.56569C13.7157 8.71572 13.5122 8.8 13.3 8.8H9.30002V12.8C9.30002 13.0122 9.21574 13.2157 9.06571 13.3657C8.91568 13.5157 8.7122 13.6 8.50002 13.6C8.28785 13.6 8.08437 13.5157 7.93434 13.3657C7.78431 13.2157 7.70002 13.0122 7.70002 12.8V8.8H3.70002C3.48785 8.8 3.28437 8.71572 3.13434 8.56569C2.98431 8.41566 2.90002 8.21217 2.90002 8C2.90002 7.78783 2.98431 7.58435 3.13434 7.43432C3.28437 7.28429 3.48785 7.2 3.70002 7.2H7.70002V3.2C7.70002 2.98783 7.78431 2.78435 7.93434 2.63432C8.08437 2.48429 8.28785 2.4 8.50002 2.4Z" fill="#77787C"/>
</g>
</svg>
